<?xml version="1.0" encoding="UTF-8" standalone="no"?>
<svg width="51px" height="34px" viewBox="0 0 51 34" version="1.1" xmlns="http://www.w3.org/2000/svg" xmlns:xlink="http://www.w3.org/1999/xlink">
    <!-- Generator: Sketch 48.1 (47250) - http://www.bohemiancoding.com/sketch -->
    <title>european-union</title>
    <desc>Created with Sketch.</desc>
    <defs></defs>
    <g id="FXwise" stroke="none" stroke-width="1" fill="none" fill-rule="evenodd" transform="translate(-811.000000, -412.000000)">
        <g id="Calculator-v1" transform="translate(268.000000, 368.000000)" fill-rule="nonzero">
            <g id="Euros" transform="translate(531.000000, 0.000000)">
                <g id="european-union" transform="translate(12.000000, 44.000000)">
                    <path d="M50.0229474,33.9721726 L0.877637427,33.9721726 C0.392988304,33.9721726 0,33.5721667 0,33.0788631 L0,0.921238095 C0,0.427934524 0.392988304,0.0279285714 0.877637427,0.0279285714 L50.0230468,0.0279285714 C50.5076959,0.0279285714 50.9006842,0.427934524 50.9006842,0.921238095 L50.9006842,33.0788631 C50.9005848,33.5722679 50.5075965,33.9721726 50.0229474,33.9721726 Z" id="Shape" fill="#41479B"></path>
                    <g id="Group" transform="translate(12.526316, 3.744048)" fill="#FFE15A">
                        <path d="M13.2808772,0.170607143 L13.632807,1.24454167 L14.7449649,1.25334524 C14.8890175,1.25445833 14.9486667,1.44145833 14.832848,1.52858333 L13.9381111,2.20109524 L14.273538,3.28039286 C14.3169825,3.42003571 14.1607018,3.53579762 14.0434912,3.45049405 L13.1387135,2.79214881 L12.2339357,3.45049405 C12.1168246,3.53569643 11.9604444,3.4201369 12.0038889,3.28039286 L12.3393158,2.20109524 L11.4445789,1.52858333 C11.3287602,1.44145833 11.3884094,1.25445833 11.532462,1.25334524 L12.6446199,1.24454167 L12.9965497,0.170607143 C13.0419825,0.0315714286 13.235345,0.0315714286 13.2808772,0.170607143 Z" id="Shape"></path>
                        <path d="M13.2808772,23.2280714 L13.632807,24.302006 L14.7449649,24.3108095 C14.8890175,24.3119226 14.9486667,24.4989226 14.832848,24.5860476 L13.9381111,25.2585595 L14.273538,26.3378571 C14.3169825,26.4775 14.1607018,26.5932619 14.0434912,26.5079583 L13.1387135,25.8496131 L12.2339357,26.5079583 C12.1168246,26.5931607 11.9604444,26.4776012 12.0038889,26.3378571 L12.3393158,25.2585595 L11.4445789,24.5860476 C11.3287602,24.4989226 11.3884094,24.3119226 11.532462,24.3108095 L12.6446199,24.302006 L12.9965497,23.2280714 C13.0419825,23.0890357 13.235345,23.0890357 13.2808772,23.2280714 Z" id="Shape"></path>
                        <path d="M24.6073509,11.6993393 L24.9592807,12.7732738 L26.0714386,12.7820774 C26.2154912,12.7831905 26.2751404,12.9701905 26.1593216,13.0573155 L25.2645848,13.7298274 L25.6000117,14.809125 C25.6434561,14.9487679 25.4871754,15.0645298 25.3699649,14.9792262 L24.4651871,14.320881 L23.5604094,14.9792262 C23.4432982,15.0644286 23.2869181,14.948869 23.3303626,14.809125 L23.6657895,13.7298274 L22.7710526,13.0573155 C22.6552339,12.9701905 22.714883,12.7831905 22.8589357,12.7820774 L23.9710936,12.7732738 L24.3230234,11.6993393 C24.3684561,11.5603036 24.5618187,11.5603036 24.6073509,11.6993393 Z" id="Shape"></path>
                        <path d="M1.95430409,11.6993393 L2.30623392,12.7732738 L3.41839181,12.7820774 C3.56244444,12.7831905 3.62209357,12.9701905 3.50627485,13.0573155 L2.61153801,13.7298274 L2.94696491,14.809125 C2.99040936,14.9487679 2.83412865,15.0645298 2.71691813,14.9792262 L1.81214035,14.320881 L0.907362573,14.9792262 C0.790251462,15.0644286 0.633871345,14.948869 0.677315789,14.809125 L1.01274269,13.7298274 L0.118005848,13.0573155 C0.0021871345,12.9701905 0.0618362573,12.7831905 0.205888889,12.7820774 L1.31804678,12.7732738 L1.66997661,11.6993393 C1.71550877,11.5603036 1.90887135,11.5603036 1.95430409,11.6993393 Z" id="Shape"></path>
                        <path d="M3.65470175,5.67891071 L4.00663158,6.75284524 L5.11878947,6.76164881 C5.26284211,6.7627619 5.32249123,6.9497619 5.20667251,7.0368869 L4.31193567,7.70939881 L4.64736257,8.78869643 C4.69080702,8.92833929 4.53452632,9.04410119 4.41731579,8.95879762 L3.51253801,8.30045238 L2.60776023,8.95879762 C2.49064912,9.044 2.33426901,8.92844048 2.37771345,8.78869643 L2.71314035,7.70939881 L1.81840351,7.0368869 C1.7025848,6.9497619 1.76223392,6.7627619 1.90628655,6.76164881 L3.01844444,6.75284524 L3.37037427,5.67891071 C3.41590643,5.539875 3.60907018,5.539875 3.65470175,5.67891071 Z" id="Shape"></path>
                        <path d="M23.2727018,17.2076429 L23.6246316,18.2815774 L24.7367895,18.290381 C24.8808421,18.291494 24.9404912,18.478494 24.8246725,18.565619 L23.9299357,19.238131 L24.2653626,20.3174286 C24.308807,20.4570714 24.1525263,20.5728333 24.0353158,20.4875298 L23.130538,19.8291845 L22.2257602,20.4875298 C22.1086491,20.5727321 21.952269,20.4571726 21.9957135,20.3174286 L22.3311404,19.238131 L21.4364035,18.565619 C21.3205848,18.478494 21.3802339,18.291494 21.5242865,18.290381 L22.6364444,18.2815774 L22.9883743,17.2076429 C23.0339064,17.0686071 23.2271696,17.0686071 23.2727018,17.2076429 Z" id="Shape"></path>
                        <path d="M19.1269883,1.45906548 L19.4789181,2.533 L20.591076,2.54180357 C20.7351287,2.54291667 20.7947778,2.72991667 20.6789591,2.81704167 L19.7842222,3.48955357 L20.1196491,4.56885119 C20.1630936,4.70849405 20.0068129,4.82425595 19.8896023,4.73895238 L18.9848246,4.08060714 L18.0800468,4.73895238 C17.9629357,4.82415476 17.8065556,4.70859524 17.85,4.56885119 L18.1854269,3.48955357 L17.2906901,2.81704167 C17.1748713,2.72991667 17.2345205,2.54291667 17.3785731,2.54180357 L18.490731,2.533 L18.8426608,1.45906548 C18.8880936,1.32002976 19.0812573,1.32002976 19.1269883,1.45906548 Z" id="Shape"></path>
                        <path d="M7.8004152,21.4274881 L8.15234503,22.5014226 L9.26450292,22.5102262 C9.40855556,22.5113393 9.46820468,22.6983393 9.35238596,22.7854643 L8.45764912,23.4579762 L8.79307602,24.5372738 C8.83652047,24.6769167 8.68023977,24.7926786 8.56302924,24.707375 L7.65825146,24.0490298 L6.75347368,24.707375 C6.63636257,24.7925774 6.47998246,24.6770179 6.5234269,24.5372738 L6.8588538,23.4579762 L5.96411696,22.7854643 C5.84829825,22.6983393 5.90794737,22.5113393 6.052,22.5102262 L7.16415789,22.5014226 L7.51608772,21.4274881 C7.56161988,21.2884524 7.75478363,21.2884524 7.8004152,21.4274881 Z" id="Shape"></path>
                        <path d="M22.9883743,5.67891071 L22.6364444,6.75284524 L21.5242865,6.76164881 C21.3802339,6.7627619 21.3205848,6.9497619 21.4364035,7.0368869 L22.3311404,7.70939881 L21.9957135,8.78869643 C21.952269,8.92833929 22.1085497,9.04410119 22.2257602,8.95879762 L23.130538,8.30045238 L24.0353158,8.95879762 C24.1524269,9.044 24.308807,8.92844048 24.2653626,8.78869643 L23.9299357,7.70939881 L24.8246725,7.0368869 C24.9404912,6.9497619 24.8808421,6.7627619 24.7367895,6.76164881 L23.6246316,6.75284524 L23.2727018,5.67891071 C23.2271696,5.539875 23.0339064,5.539875 22.9883743,5.67891071 Z" id="Shape"></path>
                        <path d="M3.37037427,17.2076429 L3.01844444,18.2815774 L1.90628655,18.290381 C1.76223392,18.291494 1.7025848,18.478494 1.81840351,18.565619 L2.71314035,19.238131 L2.37771345,20.3174286 C2.33426901,20.4570714 2.49054971,20.5728333 2.60776023,20.4875298 L3.51253801,19.8291845 L4.41731579,20.4875298 C4.5344269,20.5727321 4.69080702,20.4571726 4.64736257,20.3174286 L4.31193567,19.238131 L5.20667251,18.565619 C5.32249123,18.478494 5.26284211,18.291494 5.11878947,18.290381 L4.00663158,18.2815774 L3.65470175,17.2076429 C3.60907018,17.0686071 3.41590643,17.0686071 3.37037427,17.2076429 Z" id="Shape"></path>
                        <path d="M7.51608772,1.45906548 L7.16415789,2.533 L6.052,2.54180357 C5.90794737,2.54291667 5.84829825,2.72991667 5.96411696,2.81704167 L6.8588538,3.48955357 L6.5234269,4.56885119 C6.47998246,4.70849405 6.63626316,4.82425595 6.75347368,4.73895238 L7.65825146,4.08060714 L8.56302924,4.73895238 C8.68014035,4.82415476 8.83652047,4.70859524 8.79307602,4.56885119 L8.45764912,3.48955357 L9.35238596,2.81704167 C9.46820468,2.72991667 9.40855556,2.54291667 9.26450292,2.54180357 L8.15234503,2.533 L7.8004152,1.45906548 C7.75478363,1.32002976 7.56161988,1.32002976 7.51608772,1.45906548 Z" id="Shape"></path>
                        <path d="M18.8425614,21.4274881 L18.4906316,22.5014226 L17.3784737,22.5102262 C17.2344211,22.5113393 17.1747719,22.6983393 17.2905906,22.7854643 L18.1853275,23.4579762 L17.8499006,24.5372738 C17.8064561,24.6769167 17.9627368,24.7926786 18.0799474,24.707375 L18.9847251,24.0490298 L19.8895029,24.707375 C20.006614,24.7925774 20.1629942,24.6770179 20.1195497,24.5372738 L19.7841228,23.4579762 L20.6788596,22.7854643 C20.7946784,22.6983393 20.7350292,22.5113393 20.5909766,22.5102262 L19.4788187,22.5014226 L19.1268889,21.4274881 C19.0812573,21.2884524 18.8880936,21.2884524 18.8425614,21.4274881 Z" id="Shape"></path>
                    </g>
                </g>
            </g>
        </g>
    </g>
</svg>