<?xml version="1.0" encoding="UTF-8" standalone="no"?>
<svg width="21px" height="14px" viewBox="0 0 21 14" version="1.1" xmlns="http://www.w3.org/2000/svg" xmlns:xlink="http://www.w3.org/1999/xlink">
    <!-- Generator: Sketch 48.1 (47250) - http://www.bohemiancoding.com/sketch -->
    <title>right-arrow (4)</title>
    <desc>Created with Sketch.</desc>
    <defs></defs>
    <g id="FXwise" stroke="none" stroke-width="1" fill="none" fill-rule="evenodd" transform="translate(-764.000000, -420.000000)">
        <g id="Calculator-v1" transform="translate(268.000000, 368.000000)" fill="#2D2F39" fill-rule="nonzero">
            <g id="right-arrow-(4)" transform="translate(496.000000, 52.000000)">
                <path d="M13.9157813,0.612956522 C13.63425,0.342695652 13.1656875,0.342695652 12.8743125,0.612956522 C12.5927813,0.874086957 12.5927813,1.30869565 12.8743125,1.56921739 L18.1551563,6.4673913 L0.72909375,6.4673913 C0.322875,6.468 0,6.76747826 0,7.14426087 C0,7.52104348 0.322875,7.83026087 0.72909375,7.83026087 L18.1551563,7.83026087 L12.8743125,12.7193043 C12.5927813,12.9895652 12.5927813,13.4247826 12.8743125,13.6853043 C13.1656875,13.9555652 13.6349063,13.9555652 13.9157813,13.6853043 L20.4467813,7.62756522 C20.7381563,7.36643478 20.7381563,6.93182609 20.4467813,6.67130435 L13.9157813,0.612956522 Z" id="Shape"></path>
            </g>
        </g>
    </g>
</svg>