<?xml version="1.0" encoding="UTF-8" standalone="no"?>
<svg width="40px" height="40px" viewBox="0 0 40 40" version="1.1" xmlns="http://www.w3.org/2000/svg" xmlns:xlink="http://www.w3.org/1999/xlink">
    <!-- Generator: Sketch 48.1 (47250) - http://www.bohemiancoding.com/sketch -->
    <title>success (1)</title>
    <desc>Created with Sketch.</desc>
    <defs></defs>
    <g id="FXwise" stroke="none" stroke-width="1" fill="none" fill-rule="evenodd" transform="translate(-499.000000, -588.000000)">
        <g id="success-(1)" transform="translate(499.000000, 588.000000)" fill="#32C741" fill-rule="nonzero">
            <path d="M20,0 C8.97230769,0 0,8.97153846 0,20 C0,31.0284615 8.97230769,40 20,40 C31.0276923,40 40,31.0284615 40,20 C40,8.97153846 31.0276923,0 20,0 Z M20,38.4615385 C9.82076923,38.4615385 1.53846154,30.1792308 1.53846154,20 C1.53846154,9.82076923 9.82076923,1.53846154 20,1.53846154 C30.1792308,1.53846154 38.4615385,9.82076923 38.4615385,20 C38.4615385,30.1792308 30.1792308,38.4615385 20,38.4615385 Z" id="Shape"></path>
            <path d="M29.4246154,11.7969231 L17.6023077,25.0969231 L10.48,19.3992308 C10.1492308,19.1338462 9.66384615,19.1884615 9.39923077,19.5192308 C9.13384615,19.8515385 9.18769231,20.3353846 9.51923077,20.6007692 L17.2115385,26.7546154 C17.3530769,26.8676923 17.5230769,26.9230769 17.6923077,26.9230769 C17.9046154,26.9230769 18.1161538,26.8353846 18.2676923,26.6646154 L30.5753846,12.8184615 C30.8576923,12.5015385 30.8292308,12.0146154 30.5115385,11.7330769 C30.1930769,11.45 29.7076923,11.4784615 29.4246154,11.7969231 Z" id="Shape"></path>
        </g>
    </g>
</svg>